<svg xmlns="http://www.w3.org/2000/svg" width="146.649" height="28.333" viewBox="0 0 146.649 28.333">
  <path id="dufry-logo-vector" d="M61.94,267.758H54.19v23.908H61.94c7.236,0,11.538-3.422,11.538-11.954s-4.3-11.954-11.538-11.954m-.269,20.754H57.857V270.887h3.814c5.476,0,8.067,2.493,8.067,8.825,0,6.307-2.591,8.8-8.067,8.8m101.571-20.754-6.38,11.538-6.429-11.538H146.3l8.7,14.447v9.46h3.642v-9.46l8.7-14.447ZM93.914,282.816c0,3.373-1,6.038-5.6,6.038-4.645,0-5.622-2.665-5.622-6.038V267.758H79.027V282.6c0,5.256,1.98,9.436,9.289,9.436,7.285,0,9.289-4.18,9.289-9.436V267.734H93.914Zm49.771-8.311c0-5.085-3.618-6.771-9.192-6.771h-9.7v23.908h3.642V281.252h5.28l5.94,10.389h4.058l-6.38-10.56c3.887-.587,6.356-2.4,6.356-6.576m-15.23,3.667v-7.285h6.014c3.153,0,5.476.587,5.476,3.618s-2.322,3.642-5.6,3.642h-5.891Zm-24.1,13.494h3.642V281.276H117.6v-3.1h-9.607v-7.285h12.027v-3.153h-15.67ZM31.847,263.7H28.156v4.058H20.7V273.4c0,5.256,1.98,9.436,9.289,9.436,7.285,0,9.289-4.18,9.289-9.436v-5.647H31.847Zm3.765,7.187V273.6c0,3.373-1,6.038-5.6,6.038-4.645,0-5.647-2.665-5.647-6.038v-2.713h3.765v4.058h3.691v-4.058Z" transform="translate(-20.7 -263.7)" fill="#e2021b"/>
</svg>
