<svg xmlns="http://www.w3.org/2000/svg" width="184" height="36.172" viewBox="0 0 184 36.172">
  <g id="Grupo_3" data-name="Grupo 3" transform="translate(-318.468 352.072)">
    <path id="Caminho_1" data-name="Caminho 1" d="M321.463-332.991a2.867,2.867,0,0,0,2.04-.846,2.865,2.865,0,0,0,.846-2.04,2.858,2.858,0,0,0-.847-2.039,2.868,2.868,0,0,0-2.039-.847,2.866,2.866,0,0,0-2.04.846,2.867,2.867,0,0,0-.846,2.04,2.858,2.858,0,0,0,.848,2.04,2.865,2.865,0,0,0,2.037.846m-.863-3.749a1.211,1.211,0,0,1,.863-.357,1.207,1.207,0,0,1,.863.356,1.22,1.22,0,0,1,.358.865,1.212,1.212,0,0,1-.357.863,1.214,1.214,0,0,1-.863.357,1.207,1.207,0,0,1-.863-.357,1.212,1.212,0,0,1-.357-.863,1.213,1.213,0,0,1,.357-.863" transform="translate(-0.067 -8.227)" fill="#27272a"/>
    <path id="Caminho_2" data-name="Caminho 2" d="M342.4-346.3a2.867,2.867,0,0,0,2.041-.845,2.867,2.867,0,0,0,.846-2.04,2.858,2.858,0,0,0-.847-2.04,2.869,2.869,0,0,0-2.039-.847,2.867,2.867,0,0,0-2.04.846,2.869,2.869,0,0,0-.845,2.041,2.86,2.86,0,0,0,.848,2.04,2.867,2.867,0,0,0,2.038.845m-.863-3.749a1.213,1.213,0,0,1,.863-.357,1.206,1.206,0,0,1,.863.356,1.219,1.219,0,0,1,.358.865,1.214,1.214,0,0,1-.358.863,1.211,1.211,0,0,1-.863.357,1.208,1.208,0,0,1-.863-.357,1.212,1.212,0,0,1-.357-.863,1.213,1.213,0,0,1,.357-.864" transform="translate(-13.011 0)" fill="#27272a"/>
    <path id="Caminho_3" data-name="Caminho 3" d="M363.338-342.293a2.864,2.864,0,0,0,2.04-.846,2.865,2.865,0,0,0,.846-2.04,2.858,2.858,0,0,0-.847-2.039,2.868,2.868,0,0,0-2.039-.847,2.866,2.866,0,0,0-2.041.846,2.865,2.865,0,0,0-.845,2.04,2.859,2.859,0,0,0,.848,2.04,2.866,2.866,0,0,0,2.038.846m-.863-3.749a1.213,1.213,0,0,1,.863-.357,1.211,1.211,0,0,1,.863.356,1.22,1.22,0,0,1,.357.865,1.212,1.212,0,0,1-.357.863,1.213,1.213,0,0,1-.863.357,1.207,1.207,0,0,1-.863-.357,1.21,1.21,0,0,1-.357-.863,1.211,1.211,0,0,1,.357-.863" transform="translate(-25.953 -2.477)" fill="#27272a"/>
    <path id="Caminho_4" data-name="Caminho 4" d="M384.275-330.736a2.867,2.867,0,0,0,2.041-.846,2.866,2.866,0,0,0,.846-2.04,2.858,2.858,0,0,0-.848-2.04,2.867,2.867,0,0,0-2.039-.847,2.867,2.867,0,0,0-2.04.846,2.867,2.867,0,0,0-.845,2.041,2.858,2.858,0,0,0,.848,2.04,2.866,2.866,0,0,0,2.037.846m-.863-3.749a1.212,1.212,0,0,1,.863-.357,1.207,1.207,0,0,1,.863.356,1.218,1.218,0,0,1,.357.865,1.212,1.212,0,0,1-.357.863,1.213,1.213,0,0,1-.863.357,1.207,1.207,0,0,1-.863-.357,1.213,1.213,0,0,1-.357-.863,1.213,1.213,0,0,1,.357-.863" transform="translate(-38.896 -9.621)" fill="#27272a"/>
    <path id="Caminho_5" data-name="Caminho 5" d="M348.307-322.517a2.916,2.916,0,0,0-.859-2.068,2.907,2.907,0,0,0-2.068-.859,2.907,2.907,0,0,0-2.068.859,2.9,2.9,0,0,0-.859,2.068v10.18a1.061,1.061,0,0,1-.315.754,1.088,1.088,0,0,1-1.51,0,1.059,1.059,0,0,1-.314-.754v-14.592a2.919,2.919,0,0,0-.859-2.069,2.906,2.906,0,0,0-2.069-.859,2.9,2.9,0,0,0-2.069.862,2.9,2.9,0,0,0-.859,2.066v20.535a1.06,1.06,0,0,1-.315.754,1.088,1.088,0,0,1-1.509,0,1.062,1.062,0,0,1-.315-.754v-22.089a2.906,2.906,0,0,0-.859-2.068,2.907,2.907,0,0,0-2.068-.859,2.9,2.9,0,0,0-2.068.859,2.906,2.906,0,0,0-.86,2.068l.151,17.609a1.056,1.056,0,0,1-.314.756,1.094,1.094,0,0,1-1.511,0,1.068,1.068,0,0,1-.314-.758l-.151-12.53a2.905,2.905,0,0,0-.859-2.068,2.908,2.908,0,0,0-2.068-.859,2.909,2.909,0,0,0-2.068.859,2.907,2.907,0,0,0-.859,2.068v8.005h1.858V-323.4a1.063,1.063,0,0,1,.315-.755,1.09,1.09,0,0,1,1.51,0,1.062,1.062,0,0,1,.315.755l.151,12.53a2.92,2.92,0,0,0,.859,2.069,2.91,2.91,0,0,0,2.069.859,2.9,2.9,0,0,0,2.068-.862,2.906,2.906,0,0,0,.859-2.066l-.151-17.609a1.063,1.063,0,0,1,.314-.754,1.089,1.089,0,0,1,1.51,0,1.063,1.063,0,0,1,.315.754v22.089a2.908,2.908,0,0,0,.859,2.068,2.908,2.908,0,0,0,2.068.859,2.909,2.909,0,0,0,2.068-.859,2.908,2.908,0,0,0,.859-2.068v-20.535a1.056,1.056,0,0,1,.314-.755,1.093,1.093,0,0,1,1.511,0,1.066,1.066,0,0,1,.313.757v14.592a2.906,2.906,0,0,0,.86,2.068,2.906,2.906,0,0,0,2.068.86,2.908,2.908,0,0,0,2.068-.86,2.909,2.909,0,0,0,.859-2.068v-10.18a1.059,1.059,0,0,1,.315-.754,1.092,1.092,0,0,1,1.512,0,1.058,1.058,0,0,1,.312.754v11h1.858v-11Z" transform="translate(0 -12.773)" fill="#27272a"/>
    <path id="Caminho_6" data-name="Caminho 6" d="M440.005-310.681a7.033,7.033,0,0,0-7.025,7.025,7.033,7.033,0,0,0,7.025,7.026,7.033,7.033,0,0,0,7.025-7.026,7.033,7.033,0,0,0-7.025-7.025m0,12.275a5.2,5.2,0,0,1-5.251-5.251,5.2,5.2,0,0,1,5.251-5.25,5.24,5.24,0,0,1,5.218,5.25,5.24,5.24,0,0,1-5.218,5.251" transform="translate(-70.788 -25.587)" fill="#27272a"/>
    <path id="Caminho_7" data-name="Caminho 7" d="M536.28-330.162c0-3.6-2.5-6.526-5.566-6.526h-6.926v23.669h1.841v-10.734h4.114l5.741,10.734h2.109l-5.955-10.84c2.658-.455,4.641-3.129,4.641-6.3M525.629-325.8v-8.769h4.986c2.18,0,3.824,1.894,3.824,4.4,0,2.488-1.644,4.365-3.824,4.365Z" transform="translate(-126.923 -9.51)" fill="#27272a"/>
    <path id="Caminho_8" data-name="Caminho 8" d="M569.83-310.682a7.033,7.033,0,0,0-7.025,7.025,7.033,7.033,0,0,0,7.025,7.026,6.985,6.985,0,0,0,6.723-5l.039-.132h-1.875l-.028.071a5.2,5.2,0,0,1-4.859,3.288,5.2,5.2,0,0,1-5.248-4.978h12.24v-.475a7.007,7.007,0,0,0-6.992-6.823m-5.056,5.656a5.131,5.131,0,0,1,5.056-3.881,5.187,5.187,0,0,1,5.023,3.881Z" transform="translate(-151.042 -25.586)" fill="#27272a"/>
    <path id="Caminho_9" data-name="Caminho 9" d="M660.331-302.1c0,2.153-1.327,3.656-3.227,3.656-1.851,0-3.194-1.538-3.194-3.656v-8.585h-1.774v8.755c0,3.118,2.043,5.3,4.968,5.3,2.945,0,5-2.178,5-5.3v-8.755h-1.774Z" transform="translate(-206.263 -25.587)" fill="#27272a"/>
    <rect id="Ret창ngulo_5" data-name="Ret창ngulo 5" width="1.774" height="15.862" transform="translate(483.399 -338.391)" fill="#27272a"/>
    <path id="Caminho_10" data-name="Caminho 10" d="M750.55-336.688a1.361,1.361,0,0,0-1.351,1.368,1.344,1.344,0,0,0,1.351,1.335,1.345,1.345,0,0,0,1.352-1.335,1.361,1.361,0,0,0-1.352-1.368" transform="translate(-266.265 -9.51)" fill="#27272a"/>
    <path id="Caminho_11" data-name="Caminho 11" d="M776.28-301.432a5.256,5.256,0,0,1-4.762,3.027,5.2,5.2,0,0,1-5.251-5.25,5.2,5.2,0,0,1,5.251-5.25,5.256,5.256,0,0,1,4.762,3.027l.031.067h1.875l-.047-.136a7.012,7.012,0,0,0-6.622-4.733,7.033,7.033,0,0,0-7.025,7.025,7.033,7.033,0,0,0,7.025,7.025,7.012,7.012,0,0,0,6.622-4.733l.047-.136h-1.875Z" transform="translate(-275.719 -25.587)" fill="#27272a"/>
    <path id="Caminho_12" data-name="Caminho 12" d="M415.269-319c0,2.416-1.343,4.17-3.194,4.17h-.124v2.122h.124c2.964,0,5.034-2.523,5.034-6.135v-17.846h-1.841Z" transform="translate(-57.788 -9.51)" fill="#27272a"/>
    <rect id="Ret창ngulo_6" data-name="Ret창ngulo 6" width="1.807" height="23.669" transform="translate(477.029 -346.198)" fill="#27272a"/>
    <path id="Caminho_13" data-name="Caminho 13" d="M614.843-310.681a7.041,7.041,0,0,0-5.218,2.3v-2.039h-1.807v20.1h1.807v-8.669a7.043,7.043,0,0,0,5.218,2.3,7.021,7.021,0,0,0,7.025-7,7.021,7.021,0,0,0-7.025-7m0,12.233a5.17,5.17,0,0,1-5.218-5.232,5.17,5.17,0,0,1,5.218-5.232,5.248,5.248,0,0,1,5.251,5.232,5.247,5.247,0,0,1-5.251,5.232" transform="translate(-178.867 -25.587)" fill="#27272a"/>
    <path id="Caminho_14" data-name="Caminho 14" d="M695.311-326.675a7.047,7.047,0,0,0-5.218,2.3v-12.312h-1.807v23.717h1.807v-2.034a7.05,7.05,0,0,0,5.218,2.3,7.013,7.013,0,0,0,7.025-6.984,7.013,7.013,0,0,0-7.025-6.984m0,12.2a5.163,5.163,0,0,1-5.218-5.22,5.163,5.163,0,0,1,5.218-5.219,5.241,5.241,0,0,1,5.251,5.219,5.241,5.241,0,0,1-5.251,5.22" transform="translate(-228.61 -9.51)" fill="#27272a"/>
    <path id="Caminho_15" data-name="Caminho 15" d="M485.365-326.874a7.04,7.04,0,0,0-5.218,2.305v-8.67h0v-3.715H478.34v23.817h1.808v-2.039a7.042,7.042,0,0,0,5.218,2.3,7.021,7.021,0,0,0,7.025-7,7.022,7.022,0,0,0-7.025-7m0,12.233a5.169,5.169,0,0,1-5.218-5.232,5.169,5.169,0,0,1,5.218-5.232,5.248,5.248,0,0,1,5.251,5.232,5.247,5.247,0,0,1-5.251,5.232" transform="translate(-98.828 -9.345)" fill="#27272a"/>
  </g>
</svg>
